<svg xmlns="http://www.w3.org/2000/svg" xmlns:xlink="http://www.w3.org/1999/xlink" width="1080" zoomAndPan="magnify" viewBox="0 0 810 809.999993" height="1080" preserveAspectRatio="xMidYMid meet" version="1.0"><defs><clipPath id="213a1e28f8"><path d="M 405 0 C 181.324219 0 0 181.324219 0 405 C 0 628.675781 181.324219 810 405 810 C 628.675781 810 810 628.675781 810 405 C 810 181.324219 628.675781 0 405 0 Z M 405 0 " clip-rule="nonzero"/></clipPath></defs><g clip-path="url(#213a1e28f8)"><rect x="-81" width="972" fill="#011c43" y="-80.999999" height="971.999992" fill-opacity="1"/></g><path fill="#ffffff" d="M 499.671875 265.371094 C 487.324219 265.824219 488.179688 286.332031 500.597656 285.628906 C 515.09375 284.957031 512.722656 263.582031 499.671875 265.371094 Z M 499.671875 265.371094 " fill-opacity="1" fill-rule="nonzero"/><path fill="#ffffff" d="M 587.714844 343.890625 C 574.085938 255.816406 503.273438 179.382812 416.492188 159.070312 C 422.496094 177.460938 428.496094 195.855469 434.5 214.246094 C 374.710938 185.375 300.984375 187.378906 242.851562 219.457031 C 184.722656 251.539062 143.722656 312.84375 136.285156 378.816406 C 135.097656 389.34375 134.769531 399.949219 135.261719 410.511719 C 136.652344 440.574219 144.65625 470.332031 158.269531 497.167969 C 167.582031 515.527344 179.535156 532.582031 193.816406 547.425781 C 210.640625 564.914062 230.175781 578.183594 249.875 592.492188 C 215.832031 545.785156 202.535156 481.390625 226.363281 428.738281 C 251.136719 374 311.523438 341.414062 371.429688 336.738281 C 431.335938 332.066406 490.707031 351.296875 545.039062 376.960938 C 554.785156 381.566406 566.121094 386.4375 575.886719 381.871094 C 588.8125 375.832031 589.898438 357.992188 587.714844 343.890625 Z M 519.105469 300.378906 C 504.480469 307.28125 485.816406 300.402344 479.53125 285.476562 C 476.058594 277.222656 476.246094 267.351562 480.578125 259.445312 C 485.496094 250.476562 495.429688 244.632812 505.59375 244.171875 C 507.734375 244.074219 509.882812 244.21875 512 244.617188 C 524.164062 246.925781 534.246094 257.636719 535.808594 269.917969 C 537.375 282.195312 530.300781 295.09375 519.105469 300.378906 Z M 519.105469 300.378906 " fill-opacity="1" fill-rule="nonzero"/><path fill="#ffffff" d="M 366.945312 367.3125 C 382.207031 363.398438 397.980469 361.28125 413.664062 360.867188 C 459.226562 359.667969 504.246094 371.78125 546.558594 388.71875 C 510.144531 368.480469 470.808594 352.664062 429.566406 346.753906 C 388.320312 340.847656 344.992188 345.28125 307.613281 363.683594 C 270.234375 382.085938 239.417969 415.222656 227.957031 455.273438 C 216.667969 494.71875 225.882812 549.457031 260.175781 575.90625 C 251.410156 545.890625 243.132812 520.003906 248.796875 487.96875 C 253.984375 458.601562 268.40625 430.9375 289.507812 409.867188 C 310.664062 388.746094 337.871094 374.769531 366.945312 367.3125 Z M 366.945312 367.3125 " fill-opacity="1" fill-rule="nonzero"/><path fill="#ffffff" d="M 715.402344 381.972656 C 708.003906 312.523438 678.226562 245.292969 629.722656 194.917969 C 553.796875 116.066406 434.839844 81.484375 328.46875 107.347656 C 424.394531 90.339844 528.203125 127.214844 591.46875 201.289062 C 654.734375 275.363281 674.867188 384 641.808594 475.628906 C 608.753906 567.261719 523.582031 638.15625 427.375 653.480469 C 331.167969 668.808594 227.917969 627.660156 169.070312 550.03125 C 110.222656 472.398438 98.589844 361.53125 140.542969 273.613281 C 105.863281 328.847656 90.363281 395.871094 97.273438 460.71875 C 112.339844 602.117188 228.828125 708.878906 367.699219 725.445312 C 405.5625 729.960938 444.273438 727.789062 481.238281 718.292969 C 587.261719 691.054688 675.945312 604.558594 705.820312 499.253906 C 716.613281 461.21875 719.585938 421.242188 715.402344 381.972656 Z M 715.402344 381.972656 " fill-opacity="1" fill-rule="nonzero"/><path fill="#ffffff" d="M 288.183594 123.378906 C 288.183594 124.058594 288.117188 124.730469 287.984375 125.398438 C 287.851562 126.066406 287.65625 126.714844 287.394531 127.34375 C 287.136719 127.972656 286.816406 128.570312 286.4375 129.132812 C 286.058594 129.699219 285.628906 130.222656 285.148438 130.703125 C 284.667969 131.1875 284.144531 131.613281 283.578125 131.992188 C 283.011719 132.371094 282.414062 132.691406 281.785156 132.949219 C 281.160156 133.210938 280.511719 133.40625 279.84375 133.539062 C 279.175781 133.671875 278.5 133.738281 277.820312 133.738281 C 277.140625 133.738281 276.46875 133.671875 275.800781 133.539062 C 275.132812 133.40625 274.484375 133.210938 273.855469 132.949219 C 273.226562 132.691406 272.628906 132.371094 272.0625 131.992188 C 271.5 131.613281 270.976562 131.1875 270.492188 130.703125 C 270.011719 130.222656 269.582031 129.699219 269.207031 129.132812 C 268.828125 128.570312 268.507812 127.972656 268.246094 127.34375 C 267.988281 126.714844 267.789062 126.066406 267.65625 125.398438 C 267.523438 124.730469 267.457031 124.058594 267.457031 123.378906 C 267.457031 122.699219 267.523438 122.023438 267.65625 121.355469 C 267.789062 120.6875 267.988281 120.039062 268.246094 119.414062 C 268.507812 118.785156 268.828125 118.1875 269.207031 117.621094 C 269.582031 117.054688 270.011719 116.53125 270.492188 116.050781 C 270.976562 115.570312 271.5 115.140625 272.0625 114.761719 C 272.628906 114.382812 273.226562 114.066406 273.855469 113.804688 C 274.484375 113.542969 275.132812 113.347656 275.800781 113.214844 C 276.46875 113.082031 277.140625 113.015625 277.820312 113.015625 C 278.5 113.015625 279.175781 113.082031 279.84375 113.214844 C 280.511719 113.347656 281.160156 113.542969 281.785156 113.804688 C 282.414062 114.066406 283.011719 114.382812 283.578125 114.761719 C 284.144531 115.140625 284.667969 115.570312 285.148438 116.050781 C 285.628906 116.53125 286.058594 117.054688 286.4375 117.621094 C 286.816406 118.1875 287.136719 118.785156 287.394531 119.414062 C 287.65625 120.039062 287.851562 120.6875 287.984375 121.355469 C 288.117188 122.023438 288.183594 122.699219 288.183594 123.378906 Z M 288.183594 123.378906 " fill-opacity="1" fill-rule="nonzero"/><path fill="#ffffff" d="M 260.417969 143.238281 C 260.417969 144.175781 260.324219 145.097656 260.144531 146.015625 C 259.960938 146.929688 259.691406 147.820312 259.332031 148.683594 C 258.976562 149.546875 258.539062 150.367188 258.019531 151.144531 C 257.5 151.921875 256.910156 152.640625 256.25 153.300781 C 255.589844 153.960938 254.871094 154.550781 254.09375 155.070312 C 253.316406 155.585938 252.496094 156.027344 251.632812 156.382812 C 250.769531 156.742188 249.882812 157.011719 248.964844 157.191406 C 248.046875 157.375 247.125 157.464844 246.1875 157.464844 C 245.253906 157.464844 244.328125 157.375 243.414062 157.191406 C 242.496094 157.011719 241.609375 156.742188 240.746094 156.382812 C 239.882812 156.027344 239.0625 155.585938 238.285156 155.070312 C 237.507812 154.550781 236.789062 153.960938 236.128906 153.300781 C 235.46875 152.640625 234.878906 151.921875 234.359375 151.144531 C 233.839844 150.367188 233.402344 149.546875 233.042969 148.683594 C 232.6875 147.820312 232.417969 146.929688 232.234375 146.015625 C 232.050781 145.097656 231.960938 144.175781 231.960938 143.238281 C 231.960938 142.304688 232.050781 141.378906 232.234375 140.464844 C 232.417969 139.546875 232.6875 138.660156 233.042969 137.796875 C 233.402344 136.933594 233.839844 136.113281 234.359375 135.335938 C 234.878906 134.558594 235.46875 133.839844 236.128906 133.179688 C 236.789062 132.519531 237.507812 131.929688 238.285156 131.410156 C 239.0625 130.890625 239.882812 130.453125 240.746094 130.097656 C 241.609375 129.738281 242.496094 129.46875 243.414062 129.285156 C 244.328125 129.105469 245.253906 129.011719 246.1875 129.011719 C 247.125 129.011719 248.046875 129.105469 248.964844 129.285156 C 249.882812 129.46875 250.769531 129.738281 251.632812 130.097656 C 252.496094 130.453125 253.316406 130.890625 254.09375 131.410156 C 254.871094 131.929688 255.589844 132.519531 256.25 133.179688 C 256.910156 133.839844 257.5 134.558594 258.019531 135.335938 C 258.539062 136.113281 258.976562 136.933594 259.332031 137.796875 C 259.691406 138.660156 259.960938 139.546875 260.144531 140.464844 C 260.324219 141.378906 260.417969 142.304688 260.417969 143.238281 Z M 260.417969 143.238281 " fill-opacity="1" fill-rule="nonzero"/></svg>